<svg width="14" height="15" viewBox="0 0 14 15" fill="none" xmlns="http://www.w3.org/2000/svg">
<path d="M13.1875 0.812471V13.75C13.1875 13.8992 13.1282 14.0422 13.0227 14.1477C12.9173 14.2532 12.7742 14.3125 12.625 14.3125C12.4758 14.3125 12.3327 14.2532 12.2273 14.1477C12.1218 14.0422 12.0625 13.8992 12.0625 13.75V10.375H8.6875C8.53832 10.375 8.39524 10.3157 8.28975 10.2102C8.18426 10.1047 8.125 9.96165 8.125 9.81247C8.15112 8.46506 8.32131 7.1243 8.63266 5.8131C9.32031 2.96614 10.6239 1.05786 12.4035 0.295674C12.4891 0.259035 12.5823 0.244187 12.675 0.252463C12.7677 0.260738 12.8569 0.291878 12.9346 0.343092C13.0123 0.394306 13.076 0.463994 13.1202 0.545912C13.1643 0.627829 13.1875 0.719418 13.1875 0.812471ZM6.42977 0.720362C6.41875 0.646502 6.39314 0.575575 6.35442 0.511717C6.3157 0.44786 6.26466 0.392351 6.20426 0.348429C6.14387 0.304506 6.07533 0.273049 6.00265 0.255892C5.92998 0.238735 5.85461 0.236221 5.78095 0.248498C5.70728 0.260775 5.63681 0.287596 5.57362 0.327398C5.51043 0.367199 5.4558 0.419184 5.41292 0.48032C5.37003 0.541456 5.33975 0.610519 5.32384 0.683481C5.30793 0.756443 5.3067 0.831843 5.32023 0.905284L5.86727 4.18747H4.1875V0.812471C4.1875 0.663287 4.12824 0.520213 4.02275 0.414724C3.91726 0.309234 3.77418 0.249971 3.625 0.249971C3.47582 0.249971 3.33274 0.309234 3.22725 0.414724C3.12176 0.520213 3.0625 0.663287 3.0625 0.812471V4.18747H1.38273L1.92977 0.905284C1.9433 0.831843 1.94207 0.756443 1.92616 0.683481C1.91025 0.610519 1.87997 0.541456 1.83708 0.48032C1.7942 0.419184 1.73957 0.367199 1.67638 0.327398C1.61319 0.287596 1.54272 0.260775 1.46905 0.248498C1.39539 0.236221 1.32002 0.238735 1.24735 0.255892C1.17467 0.273049 1.10613 0.304506 1.04574 0.348429C0.985341 0.392351 0.934297 0.44786 0.895581 0.511717C0.856865 0.575575 0.831251 0.646502 0.820234 0.720362L0.257734 4.09536C0.252686 4.12581 0.2501 4.15661 0.25 4.18747C0.251124 4.98468 0.534005 5.75584 1.04866 6.36467C1.56331 6.9735 2.2766 7.38082 3.0625 7.51466V13.75C3.0625 13.8992 3.12176 14.0422 3.22725 14.1477C3.33274 14.2532 3.47582 14.3125 3.625 14.3125C3.77418 14.3125 3.91726 14.2532 4.02275 14.1477C4.12824 14.0422 4.1875 13.8992 4.1875 13.75V7.51466C4.9734 7.38082 5.68669 6.9735 6.20134 6.36467C6.716 5.75584 6.99888 4.98468 7 4.18747C6.9999 4.15661 6.99731 4.12581 6.99227 4.09536L6.42977 0.720362Z" fill="#1F8459"/>
</svg>
